#!OML:ASF F:\VICON\USERDATA\INSTALL\rory3\rory3.ASF
:FULLY-SPECIFIED
:DEGREES
20
root 0.6779120000000003 17.796 -17.53170000000008 -0.1734220000000004 -5.614930000000008 -8.952609999999998
lfemur -27.550700000000038 -4.449570000000002 -7.481850000000001
ltibia 18.63779999999999
lfoot -6.946210000000001 12.706099999999989
ltoes -1.4781000000000026
rfemur 4.743829999999987 7.141490000000005 36.3199
rtibia 23.580600000000004
rfoot -20.249200000000023 -7.327419999999998
rtoes -0.49961699999999754
lowerback 1.0 2.2337200000000017 8.516900000000005
upperback 0.16145399999999965 4.0198200000000055 2.7820399999999985
thorax -4.68121 1.8189500000000018 -2.374450000000002
lowerneck -16.3494 -2.92751 -1.7593300000000005
upperneck 21.1181 -3.73881 0.5453659999999992
head 9.40446 -1.82146 0.001451759999999802
lclavicle -3.0209100000000034e-14 5.565970000000008e-15
lhumerus -36.3668 3.9218299999999973 83.3196
lradius 24.2779
lwrist 3.653770000000002
lhand -26.052600000000005 22.4265
lfingers 7.12502
lthumb 0.4949869999999986 52.4057
rclavicle -3.0209100000000034e-14 5.565970000000008e-15
rhumerus -21.729500000000005 -5.841049999999987 -82.8655
rradius 30.765899999999995
rwrist -1.0788700000000109
rhand -19.9755 1.0
rfingers 7.12502
rthumb 6.363440000000001 -6.667909999999998
21
root 0.31283131872395464 17.94524717742995 10.714717412573615 -1.6782718368516663 -5.257442061824078 0.4641686395816875
lfemur -15.495788022037924 -2.9923489152703135 -23.403960673994717
ltibia 14.301705815169452
lfoot -1.1320499839628564 -3.2357600797458055
ltoes -13.440988971024838
rfemur -4.2836901943976855 5.31993449171015 26.026765671131127
rtibia 34.17820091376364
rfoot -11.735030554663359 -8.50085947107285
rtoes -3.262351809326272
lowerback 1.0 1.7670364420019808 -0.924545285314573
upperback 0.4150700205791238 2.185480594670401 0.3098758555648313
thorax -4.532472778123799 1.1304008408525508 -0.900884472863577
lowerneck -16.547738398945913 -3.058037835142443 -1.4247244796941665
upperneck 21.709069226692886 -3.9763492251223926 0.8417030500015276
head 9.91452934922248 -1.8899321815887788 0.034758697042127626
lclavicle -1.0507780136401666e-15 -4.0366968175794874e-16
lhumerus -35.467826295659755 4.0008957988245495 83.32253501402595
lradius 25.274298307089346
lwrist 5.596453010136604
lhand -26.758642966808168 24.585474543640856
lfingers nan
lthumb -0.29857191947984885 54.509921606567985
rclavicle -1.0735943669063198e-15 -4.4221103180965264e-16
rhumerus -25.315486152921338 -15.325904664417106 -80.85793764743379
rradius 28.601801272110364
rwrist 11.130302868761976
rhand -18.27283621431245 1.0
rfingers nan
rthumb 8.112740179221293 -6.994480363291443
22
root 0.2140867220885085 18.001065769870163 7.8214702580594295 -1.742078596877491 -4.332304007253349 1.2693380057467274
lfemur -8.860387792509549 -2.823999168382947 -24.50083036682708
ltibia 11.121715262011346
lfoot -0.27696770924504666 -7.806365899088355
ltoes -7.670760299925497
rfemur -8.498686401633218 3.301169709429616 22.689039591372456
rtibia 44.01051786857733
rfoot -5.3514010483012004 -5.85088726085589
rtoes -0.6481492148789241
lowerback 1.0 1.4201305344233393 -1.07233602609915
upperback 0.6065947987485042 1.6276674076488715 0.02207697477360404
thorax -4.624669861446119 0.8478984604577469 -0.2843926424283858
lowerneck -16.557567101520135 -3.1615300179234316 -1.35426082410173
upperneck 21.49473596651071 -4.145049085898841 1.119437106122462
head 9.808151283082177 -1.943482206219731 0.12372210165135111
lclavicle -1.10442075590132e-15 -4.4197403470908533e-16
lhumerus -34.71405444253234 3.514770966714872 83.40898158409675
lradius 26.43989093033675
lwrist 6.0292636784491345
lhand -27.017024714440154 25.121555449516325
lfingers nan
lthumb -0.5155922645417403 55.14739765664198
rclavicle -1.1065450713485381e-15 -4.5707566843543e-16
rhumerus -25.968459902644284 -16.403582620509624 -81.13459424032712
rradius 27.890803910414178
rwrist 10.444451471354258
rhand -18.103546811145016 1.0
rfingers nan
rthumb 8.355056371778703 -7.563409894210238
23
root 0.1456616688833765 17.99944538831023 6.26285761557659 -1.9368564709674243 -4.663501616650619 1.5488657209200873
lfemur -3.903296771320912 -3.353310449688296 -25.653790229870232
ltibia 8.831037169109269
lfoot -2.473025031474595 -13.069668742560335
ltoes -3.719313142412551
rfemur -12.785255705046225 2.2366697885037645 20.501034515494716
rtibia 50.54353830307874
rfoot -3.580913112738706 -7.644162498858133
rtoes 3.085289392272223
lowerback 1.0 1.216036969939659 -1.3588816130459245
upperback 0.616486593753796 1.1029968761599795 0.014779942759578057
thorax -4.782388311041942 0.6549134859937331 0.17984549930446148
lowerneck -16.76647885587135 -3.221407601493483 -1.4465198917805018
upperneck 21.39397638256948 -4.206636281194702 1.30898199181531
head 9.666452833656818 -1.9623165366272464 0.21416101464287066
lclavicle -1.098000033045032e-15 -4.3535393652284406e-16
lhumerus -33.47952613092969 1.997681655983221 83.5747401067668
lradius 27.57906256290415
lwrist 5.780155399259332
lhand -27.203992121019652 25.155769310131035
lfingers nan
lthumb -0.6446627156023197 55.13397410114543
rclavicle -1.1029349106094793e-15 -4.481205767358184e-16
rhumerus -26.57081571159718 -17.128956953355456 -81.75359085674917
rradius 27.355866047935674
rwrist 10.499747012901164
rhand -17.988255795385193 1.0
rfingers nan
rthumb 8.582279073570941 -7.694456694182327
24
root 0.1260886737885129 17.986743540746943 6.3089077338736805 -2.0896946037168695 -4.830243882586702 1.7943581023465387
lfemur 0.2158917943720553 -3.9928612692450285 -26.501396078578438
ltibia 7.33224983417006
lfoot -5.221179189482148 -12.097131765294236
ltoes -3.4282039297866773
rfemur -17.682646534221192 1.7253073862570756 19.15425949592456
rtibia 55.18121339173235
rfoot -3.6933504916989293 -10.755127150820154
rtoes 5.827855883361591
lowerback 1.0 0.8568018397797044 -1.7469752415777644
upperback 0.5951603753220416 0.7193537588855754 -0.0360564518358113
thorax -4.964669051376319 0.4639553119297226 0.8152071991805452
lowerneck -16.54927478444159 -3.1862939160332644 -1.4042178175338773
upperneck 21.159182323380282 -4.162798449637096 1.316786573584998
head 9.585857505302261 -1.9478100573988921 0.23430692779358075
lclavicle -1.0985053230671752e-15 -4.3236441564319817e-16
lhumerus -31.632253344182704 0.09664730757802897 83.68483123062218
lradius 27.985876057402177
lwrist 5.249152791841714
lhand -27.442763438183267 25.014942126847444
lfingers nan
lthumb -0.8396178377828885 55.00296570856535
rclavicle -1.1269391382452123e-15 -4.608968800609712e-16
rhumerus -27.321887158605577 -17.852597618189588 -82.33336690653579
rradius 26.463188331453022
rwrist 9.345405258856076
rhand -18.005328823113114 1.0
rfingers nan
rthumb 8.598477338705218 -8.019930967055917
